<?xml version="1.0" encoding="UTF-8"?>
<!DOCTYPE svg PUBLIC "-//W3C//DTD SVG 1.1//EN" "http://www.w3.org/Graphics/SVG/1.1/DTD/svg11.dtd">
<svg xmlns="http://www.w3.org/2000/svg" version="1.1" width="382px" height="94px" style="shape-rendering:geometricPrecision; text-rendering:geometricPrecision; image-rendering:optimizeQuality; fill-rule:evenodd; clip-rule:evenodd" xmlns:xlink="http://www.w3.org/1999/xlink">
<g><path style="opacity:0.939" fill="#e05e4a" d="M 38.5,12.5 C 29.8333,12.5 21.1667,12.5 12.5,12.5C 12.933,9.83438 13.433,7.16772 14,4.5C 14.8388,3.37586 16.0055,2.70919 17.5,2.5C 25.7163,3.55734 32.7163,6.89067 38.5,12.5 Z"/></g>
<g><path style="opacity:0.88" fill="#e8714a" d="M 278.5,16.5 C 259.167,16.5 239.833,16.5 220.5,16.5C 221.334,15.2521 222.667,14.5854 224.5,14.5C 227.822,14.9435 231.155,15.2768 234.5,15.5C 248.898,14.7519 263.232,13.4185 277.5,11.5C 277.629,13.2161 277.962,14.8828 278.5,16.5 Z"/></g>
<g><path style="opacity:0.991" fill="#e8714a" d="M 12.5,12.5 C 21.1667,12.5 29.8333,12.5 38.5,12.5C 39.9744,13.4363 40.9744,14.7697 41.5,16.5C 29.7527,16.8113 18.0861,16.478 6.5,15.5C 8.84386,15.0603 10.8439,14.0603 12.5,12.5 Z"/></g>
<g><path style="opacity:0.953" fill="#e7704a" d="M 191.5,16.5 C 181.5,16.5 171.5,16.5 161.5,16.5C 164.557,13.6381 168.224,11.8047 172.5,11C 178.825,10.5005 185.158,10.3338 191.5,10.5C 191.5,12.5 191.5,14.5 191.5,16.5 Z"/></g>
<g><path style="opacity:0.932" fill="#ee814a" d="M 6.5,15.5 C 18.0861,16.478 29.7527,16.8113 41.5,16.5C 43.2671,18.7916 44.2671,21.4582 44.5,24.5C 39.2599,23.5509 33.9265,23.2175 28.5,23.5C 26.8538,21.2486 24.6871,19.582 22,18.5C 21.5172,19.448 21.3505,20.448 21.5,21.5C 16.5,21.5 11.5,21.5 6.5,21.5C 6.5,19.5 6.5,17.5 6.5,15.5 Z"/></g>
<g><path style="opacity:0.985" fill="#ea794b" d="M 81.5,19.5 C 74.0483,19.4168 66.7149,19.7501 59.5,20.5C 59.5751,17.7938 59.9084,15.1272 60.5,12.5C 66.8933,12.7929 73.2266,12.4596 79.5,11.5C 80.7946,14.0119 81.4613,16.6786 81.5,19.5 Z"/></g>
<g><path style="opacity:0.961" fill="#e8734a" d="M 106.5,18.5 C 99.8333,18.5 93.1667,18.5 86.5,18.5C 86.5,15.5 86.5,12.5 86.5,9.5C 91.8333,9.5 97.1667,9.5 102.5,9.5C 102.34,11.1992 102.506,12.8659 103,14.5C 104.376,15.7051 105.542,17.0384 106.5,18.5 Z"/></g>
<g><path style="opacity:0.978" fill="#e8734a" d="M 142.5,17.5 C 137.26,18.4491 131.927,18.7825 126.5,18.5C 126.5,15.5 126.5,12.5 126.5,9.5C 131.833,9.5 137.167,9.5 142.5,9.5C 142.5,12.1667 142.5,14.8333 142.5,17.5 Z"/></g>
<g><path style="opacity:0.979" fill="#eb7b4b" d="M 220.5,16.5 C 239.833,16.5 259.167,16.5 278.5,16.5C 278.5,16.8333 278.5,17.1667 278.5,17.5C 259.167,18.1667 239.833,18.8333 220.5,19.5C 220.5,18.5 220.5,17.5 220.5,16.5 Z"/></g>
<g><path style="opacity:0.962" fill="#ec7d4a" d="M 161.5,16.5 C 171.5,16.5 181.5,16.5 191.5,16.5C 191.443,17.609 191.11,18.609 190.5,19.5C 179.483,19.6856 168.483,19.6856 157.5,19.5C 158.262,17.7376 159.596,16.7376 161.5,16.5 Z"/></g>
<g><path style="opacity:0.995" fill="#ef844b" d="M 278.5,17.5 C 278.5,18.5 278.5,19.5 278.5,20.5C 259.341,21.497 240.007,21.8303 220.5,21.5C 220.5,20.8333 220.5,20.1667 220.5,19.5C 239.833,18.8333 259.167,18.1667 278.5,17.5 Z"/></g>
<g><path style="opacity:0.957" fill="#f28c4b" d="M 81.5,19.5 C 82.1495,21.4352 82.4828,23.4352 82.5,25.5C 80.8333,25.5 79.1667,25.5 77.5,25.5C 72.2861,24.596 66.9528,24.596 61.5,25.5C 60.5,25.5 59.5,25.5 58.5,25.5C 58.6287,23.7839 58.962,22.1172 59.5,20.5C 66.7149,19.7501 74.0483,19.4168 81.5,19.5 Z"/></g>
<g><path style="opacity:0.984" fill="#f18b4b" d="M 142.5,17.5 C 142.5,20.1667 142.5,22.8333 142.5,25.5C 137.147,25.1261 131.814,24.7927 126.5,24.5C 126.5,22.5 126.5,20.5 126.5,18.5C 131.927,18.7825 137.26,18.4491 142.5,17.5 Z"/></g>
<g><path style="opacity:0.951" fill="#f28c4b" d="M 157.5,19.5 C 168.483,19.6856 179.483,19.6856 190.5,19.5C 190.5,21.1667 190.5,22.8333 190.5,24.5C 184.426,23.2461 178.426,23.5794 172.5,25.5C 166.011,25.5492 159.677,25.2158 153.5,24.5C 154.08,22.2512 155.413,20.5846 157.5,19.5 Z"/></g>
<g><path style="opacity:0.995" fill="#f28e4b" d="M 278.5,20.5 C 279.801,21.8845 279.801,23.3845 278.5,25C 276.08,25.2904 273.746,25.7904 271.5,26.5C 271.217,25.7109 270.717,25.0442 270,24.5C 253.441,25.6192 236.607,25.6192 219.5,24.5C 219.263,23.209 219.596,22.209 220.5,21.5C 240.007,21.8303 259.341,21.497 278.5,20.5 Z"/></g>
<g><path style="opacity:0.971" fill="#f28d4b" d="M 86.5,18.5 C 93.1667,18.5 99.8333,18.5 106.5,18.5C 108.167,20.5 109.833,22.5 111.5,24.5C 103.34,25.1731 95.007,25.5064 86.5,25.5C 86.5,23.1667 86.5,20.8333 86.5,18.5 Z"/></g>
<g><path style="opacity:0.961" fill="#f79849" d="M 28.5,23.5 C 33.9265,23.2175 39.2599,23.5509 44.5,24.5C 44.8128,28.0419 44.4794,31.3752 43.5,34.5C 37.8333,34.5 32.1667,34.5 26.5,34.5C 30.5583,31.2979 31.225,27.6312 28.5,23.5 Z"/></g>
<g><path style="opacity:0.976" fill="#f89b4a" d="M 111.5,24.5 C 113.727,26.6068 115.727,28.9401 117.5,31.5C 107.167,31.5 96.8333,31.5 86.5,31.5C 86.5,29.5 86.5,27.5 86.5,25.5C 95.007,25.5064 103.34,25.1731 111.5,24.5 Z"/></g>
<g><path style="opacity:0.953" fill="#f7994b" d="M 126.5,24.5 C 131.814,24.7927 137.147,25.1261 142.5,25.5C 142.5,27.5 142.5,29.5 142.5,31.5C 137.167,31.5 131.833,31.5 126.5,31.5C 126.5,29.1667 126.5,26.8333 126.5,24.5 Z"/></g>
<g><path style="opacity:0.931" fill="#f89b4b" d="M 153.5,24.5 C 159.677,25.2158 166.011,25.5492 172.5,25.5C 170.192,27.4707 167.858,29.4707 165.5,31.5C 160.167,31.5 154.833,31.5 149.5,31.5C 150.079,28.6689 151.412,26.3356 153.5,24.5 Z"/></g>
<g><path style="opacity:0.942" fill="#f7974a" d="M 219.5,24.5 C 236.607,25.6192 253.441,25.6192 270,24.5C 270.717,25.0442 271.217,25.7109 271.5,26.5C 261.549,27.8277 251.549,28.4944 241.5,28.5C 241.5,31.5 241.5,34.5 241.5,37.5C 236.833,37.5 232.167,37.5 227.5,37.5C 227.5,34.5 227.5,31.5 227.5,28.5C 224.833,28.5 222.167,28.5 219.5,28.5C 219.5,27.1667 219.5,25.8333 219.5,24.5 Z"/></g>
<g><path style="opacity:0.858" fill="#f6974b" d="M 6.5,21.5 C 11.5,21.5 16.5,21.5 21.5,21.5C 21.5,24.8333 21.5,28.1667 21.5,31.5C 16.193,32.0265 11.193,31.3598 6.5,29.5C 6.5,26.8333 6.5,24.1667 6.5,21.5 Z"/></g>
<g><path style="opacity:0.949" fill="#f6954a" d="M 355.5,29.5 C 350.807,31.3598 345.807,32.0265 340.5,31.5C 340.5,27.5 340.5,23.5 340.5,19.5C 345.5,19.5 350.5,19.5 355.5,19.5C 355.5,22.8333 355.5,26.1667 355.5,29.5 Z"/></g>
<g><path style="opacity:0.969" fill="#f79247" d="M 86.5,31.5 C 96.8333,31.5 107.167,31.5 117.5,31.5C 118.5,31.8333 119.167,32.5 119.5,33.5C 108.679,34.4946 97.6794,34.8279 86.5,34.5C 86.5,33.5 86.5,32.5 86.5,31.5 Z"/></g>
<g><path style="opacity:0.967" fill="#f78e45" d="M 6.5,29.5 C 11.193,31.3598 16.193,32.0265 21.5,31.5C 21.3398,33.1992 21.5065,34.8659 22,36.5C 23.3297,35.4178 24.8297,34.7512 26.5,34.5C 32.1667,34.5 37.8333,34.5 43.5,34.5C 43.4431,35.609 43.1098,36.609 42.5,37.5C 30.5,37.5 18.5,37.5 6.5,37.5C 6.5,34.8333 6.5,32.1667 6.5,29.5 Z"/></g>
<g><path style="opacity:0.927" fill="#f79247" d="M 77.5,25.5 C 77.5,29.5 77.5,33.5 77.5,37.5C 72.8333,37.5 68.1667,37.5 63.5,37.5C 63.9843,33.1726 63.3177,29.1726 61.5,25.5C 66.9528,24.596 72.2861,24.596 77.5,25.5 Z"/></g>
<g><path style="opacity:0.986" fill="#f68b44" d="M 119.5,33.5 C 120.833,34.1667 121.833,35.1667 122.5,36.5C 110.678,37.4951 98.6783,37.8284 86.5,37.5C 86.5,36.5 86.5,35.5 86.5,34.5C 97.6794,34.8279 108.679,34.4946 119.5,33.5 Z"/></g>
<g><path style="opacity:0.916" fill="#f78e45" d="M 126.5,31.5 C 131.833,31.5 137.167,31.5 142.5,31.5C 142.5,33.5 142.5,35.5 142.5,37.5C 137.167,37.5 131.833,37.5 126.5,37.5C 126.5,35.5 126.5,33.5 126.5,31.5 Z"/></g>
<g><path style="opacity:0.972" fill="#f68d44" d="M 149.5,31.5 C 154.833,31.5 160.167,31.5 165.5,31.5C 163.851,34.4564 162.517,37.4564 161.5,40.5C 157.048,40.7764 152.381,40.4431 147.5,39.5C 147.56,36.6592 148.226,33.9925 149.5,31.5 Z"/></g>
<g><path style="opacity:0.939" fill="#f68842" d="M 355.5,29.5 C 355.5,31.8333 355.5,34.1667 355.5,36.5C 361.863,36.407 368.196,36.7403 374.5,37.5C 374.5,38.8333 374.5,40.1667 374.5,41.5C 373.778,41.0825 373.278,40.4158 373,39.5C 356.667,40.8333 340.333,40.8333 324,39.5C 323.51,40.7932 323.343,42.1266 323.5,43.5C 323.5,43.8333 323.5,44.1667 323.5,44.5C 322.532,42.3926 322.198,40.0593 322.5,37.5C 328.5,37.5 334.5,37.5 340.5,37.5C 340.5,35.5 340.5,33.5 340.5,31.5C 345.807,32.0265 350.807,31.3598 355.5,29.5 Z"/></g>
<g><path style="opacity:0.978" fill="#f68642" d="M 6.5,37.5 C 18.5,37.5 30.5,37.5 42.5,37.5C 43.1667,38.1667 43.8333,38.8333 44.5,39.5C 32.3446,40.4952 20.0113,40.8286 7.5,40.5C 6.89022,39.609 6.55688,38.609 6.5,37.5 Z"/></g>
<g><path style="opacity:0.943" fill="#f68741" d="M 122.5,36.5 C 123.794,37.2899 124.961,38.2899 126,39.5C 126.464,38.9056 126.631,38.2389 126.5,37.5C 131.833,37.5 137.167,37.5 142.5,37.5C 142.5,38.5 142.5,39.5 142.5,40.5C 129.833,40.5 117.167,40.5 104.5,40.5C 103.604,39.4937 102.938,39.4937 102.5,40.5C 97.1667,40.5 91.8333,40.5 86.5,40.5C 86.5,39.5 86.5,38.5 86.5,37.5C 98.6783,37.8284 110.678,37.4951 122.5,36.5 Z"/></g>
<g><path style="opacity:0.981" fill="#f5803f" d="M 44.5,39.5 C 46.4341,40.1103 48.1007,41.1103 49.5,42.5C 34.9709,42.839 20.6375,43.839 6.5,45.5C 6.5,46.1667 6.16667,46.5 5.5,46.5C 5.02539,43.9179 5.69206,41.9179 7.5,40.5C 20.0113,40.8286 32.3446,40.4952 44.5,39.5 Z"/></g>
<g><path style="opacity:0.99" fill="#f57f3e" d="M 374.5,41.5 C 374.672,42.4916 374.338,43.1583 373.5,43.5C 356.833,43.5 340.167,43.5 323.5,43.5C 323.343,42.1266 323.51,40.7932 324,39.5C 340.333,40.8333 356.667,40.8333 373,39.5C 373.278,40.4158 373.778,41.0825 374.5,41.5 Z"/></g>
<g><path style="opacity:0.946" fill="#f57f3f" d="M 104.5,40.5 C 117.167,40.5 129.833,40.5 142.5,40.5C 142.5,41.5 142.5,42.5 142.5,43.5C 130.833,43.5 119.167,43.5 107.5,43.5C 106.167,42.8333 105.167,41.8333 104.5,40.5 Z"/></g>
<g><path style="opacity:0.873" fill="#f47b3c" d="M 227.5,37.5 C 232.167,37.5 236.833,37.5 241.5,37.5C 241.5,40.1667 241.5,42.8333 241.5,45.5C 250.527,44.831 259.527,43.831 268.5,42.5C 270.038,42.4534 271.038,43.1201 271.5,44.5C 256.331,46.1616 240.998,47.1616 225.5,47.5C 227.178,44.4484 227.845,41.1151 227.5,37.5 Z"/></g>
<g><path style="opacity:0.993" fill="#f4793c" d="M 49.5,42.5 C 51.1667,43.5 52.5,44.8333 53.5,46.5C 37.7556,46.8171 22.089,46.4838 6.5,45.5C 20.6375,43.839 34.9709,42.839 49.5,42.5 Z"/></g>
<g><path style="opacity:0.922" fill="#f47b3d" d="M 86.5,40.5 C 91.8333,40.5 97.1667,40.5 102.5,40.5C 102.5,42.5 102.5,44.5 102.5,46.5C 97.1667,46.5 91.8333,46.5 86.5,46.5C 86.5,44.5 86.5,42.5 86.5,40.5 Z"/></g>
<g><path style="opacity:0.968" fill="#f4793c" d="M 107.5,43.5 C 119.167,43.5 130.833,43.5 142.5,43.5C 142.5,44.5 142.5,45.5 142.5,46.5C 131.5,46.5 120.5,46.5 109.5,46.5C 108.833,45.5 108.167,44.5 107.5,43.5 Z"/></g>
<g><path style="opacity:0.98" fill="#f47a3c" d="M 216.5,45.5 C 203.913,46.4798 191.246,46.8131 178.5,46.5C 178.5,45.1667 178.5,43.8333 178.5,42.5C 190.458,44.1934 202.291,43.5267 214,40.5C 215.876,41.619 216.709,43.2856 216.5,45.5 Z"/></g>
<g><path style="opacity:0.989" fill="#f4793c" d="M 323.5,43.5 C 340.167,43.5 356.833,43.5 373.5,43.5C 373.5,44.1667 373.5,44.8333 373.5,45.5C 356.911,46.4848 340.244,46.8181 323.5,46.5C 323.5,45.8333 323.5,45.1667 323.5,44.5C 323.5,44.1667 323.5,43.8333 323.5,43.5 Z"/></g>
<g><path style="opacity:0.992" fill="#f37339" d="M 373.5,45.5 C 373.5,46.8333 373.5,48.1667 373.5,49.5C 356.833,49.5 340.167,49.5 323.5,49.5C 323.5,48.5 323.5,47.5 323.5,46.5C 340.244,46.8181 356.911,46.4848 373.5,45.5 Z"/></g>
<g><path style="opacity:0.992" fill="#f37039" d="M 6.5,45.5 C 22.089,46.4838 37.7556,46.8171 53.5,46.5C 55.278,48.8292 56.278,51.4958 56.5,54.5C 50.8667,53.7868 45.2001,53.1202 39.5,52.5C 36.2752,50.9787 32.9419,49.6454 29.5,48.5C 26.8747,49.7639 24.2081,50.9305 21.5,52C 22.3366,53.0113 22.67,54.1779 22.5,55.5C 17.807,53.6402 12.807,52.9735 7.5,53.5C 6.7321,51.2854 6.06543,48.9521 5.5,46.5C 6.16667,46.5 6.5,46.1667 6.5,45.5 Z"/></g>
<g><path style="opacity:0.878" fill="#f4783c" d="M 63.5,37.5 C 68.1667,37.5 72.8333,37.5 77.5,37.5C 78.1266,42.1408 78.4599,46.8075 78.5,51.5C 73.5,50.1667 68.5,50.1667 63.5,51.5C 63.5,46.8333 63.5,42.1667 63.5,37.5 Z"/></g>
<g><path style="opacity:0.971" fill="#f37339" d="M 216.5,45.5 C 216.629,47.2161 216.962,48.8828 217.5,50.5C 204.579,49.5197 191.579,49.1863 178.5,49.5C 178.5,48.5 178.5,47.5 178.5,46.5C 191.246,46.8131 203.913,46.4798 216.5,45.5 Z"/></g>
<g><path style="opacity:0.999" fill="#f3733a" d="M 271.5,44.5 C 271.5,46.1667 271.5,47.8333 271.5,49.5C 256.298,49.8083 240.964,49.4749 225.5,48.5C 225.5,48.1667 225.5,47.8333 225.5,47.5C 240.998,47.1616 256.331,46.1616 271.5,44.5 Z"/></g>
<g><path style="opacity:0.976" fill="#f36f38" d="M 109.5,46.5 C 120.5,46.5 131.5,46.5 142.5,46.5C 143.341,48.3792 143.675,50.3792 143.5,52.5C 134.734,53.1404 126.068,53.8071 117.5,54.5C 114.5,52.1667 111.833,49.5 109.5,46.5 Z"/></g>
<g><path style="opacity:0.927" fill="#f36e38" d="M 323.5,49.5 C 340.167,49.5 356.833,49.5 373.5,49.5C 367.69,50.4896 361.69,50.8229 355.5,50.5C 355.5,51.8333 355.5,53.1667 355.5,54.5C 350.93,53.559 346.263,53.2256 341.5,53.5C 341.737,54.791 341.404,55.791 340.5,56.5C 340.5,54.5 340.5,52.5 340.5,50.5C 337.201,51.0218 333.867,51.3551 330.5,51.5C 327.731,51.4714 325.397,50.8048 323.5,49.5 Z"/></g>
<g><path style="opacity:0.978" fill="#f26e39" d="M 86.5,46.5 C 91.8333,46.5 97.1667,46.5 102.5,46.5C 102.993,48.8056 103.326,51.139 103.5,53.5C 98.1667,53.5 92.8333,53.5 87.5,53.5C 87.7373,54.791 87.404,55.791 86.5,56.5C 86.5,53.1667 86.5,49.8333 86.5,46.5 Z"/></g>
<g><path style="opacity:0.947" fill="#f3733a" d="M 147.5,39.5 C 152.381,40.4431 157.048,40.7764 161.5,40.5C 161.5,44.5 161.5,48.5 161.5,52.5C 156.93,53.441 152.263,53.7744 147.5,53.5C 146.238,48.8188 146.238,44.1521 147.5,39.5 Z"/></g>
<g><path style="opacity:0.986" fill="#f26c39" d="M 178.5,49.5 C 191.579,49.1863 204.579,49.5197 217.5,50.5C 217.5,51.5 217.5,52.5 217.5,53.5C 204.421,53.8137 191.421,53.4803 178.5,52.5C 178.5,51.5 178.5,50.5 178.5,49.5 Z"/></g>
<g><path style="opacity:0.987" fill="#f26c39" d="M 225.5,48.5 C 240.964,49.4749 256.298,49.8083 271.5,49.5C 272.434,50.5676 272.768,51.901 272.5,53.5C 256.833,53.5 241.167,53.5 225.5,53.5C 225.5,51.8333 225.5,50.1667 225.5,48.5 Z"/></g>
<g><path style="opacity:0.94" fill="#f2683a" d="M 78.5,51.5 C 78.5,53.5 78.5,55.5 78.5,57.5C 73.8333,57.5 69.1667,57.5 64.5,57.5C 63.6586,55.6208 63.3253,53.6208 63.5,51.5C 68.5,50.1667 73.5,50.1667 78.5,51.5 Z"/></g>
<g><path style="opacity:0.937" fill="#f2673a" d="M 178.5,52.5 C 191.421,53.4803 204.421,53.8137 217.5,53.5C 215.37,54.7105 213.37,56.0439 211.5,57.5C 206.405,57.7787 201.405,57.4454 196.5,56.5C 190.048,56.9155 183.715,56.4155 177.5,55C 178.252,54.3292 178.586,53.4959 178.5,52.5 Z"/></g>
<g><path style="opacity:0.969" fill="#f1653b" d="M 143.5,52.5 C 143.5,55.5 143.5,58.5 143.5,61.5C 136.918,61.3923 130.585,61.3923 124.5,61.5C 121.833,59.5 119.5,57.1667 117.5,54.5C 126.068,53.8071 134.734,53.1404 143.5,52.5 Z"/></g>
<g><path style="opacity:0.958" fill="#f2653a" d="M 225.5,53.5 C 241.167,53.5 256.833,53.5 272.5,53.5C 273.598,54.397 273.598,55.2303 272.5,56C 262.237,57.704 251.904,58.704 241.5,59C 242.38,60.3561 242.714,61.8561 242.5,63.5C 237.807,61.6402 232.807,60.9735 227.5,61.5C 227.5,60.5 227.5,59.5 227.5,58.5C 226.325,58.719 225.325,58.3857 224.5,57.5C 225.246,56.2638 225.579,54.9305 225.5,53.5 Z"/></g>
<g><path style="opacity:0.97" fill="#f1623c" d="M 7.5,53.5 C 12.807,52.9735 17.807,53.6402 22.5,55.5C 22.5,57.8333 22.5,60.1667 22.5,62.5C 17.5,61.1667 12.5,61.1667 7.5,62.5C 7.5,59.5 7.5,56.5 7.5,53.5 Z"/></g>
<g><path style="opacity:0.946" fill="#f2623c" d="M 39.5,52.5 C 45.2001,53.1202 50.8667,53.7868 56.5,54.5C 56.8064,57.3854 56.4731,60.0521 55.5,62.5C 51.2975,61.2006 46.9642,61.2006 42.5,62.5C 41.7025,62.0431 41.3691,61.3764 41.5,60.5C 41.6775,59.3052 42.0109,58.1385 42.5,57C 41.6854,55.3566 40.6854,53.8566 39.5,52.5 Z"/></g>
<g><path style="opacity:0.923" fill="#f1623c" d="M 103.5,53.5 C 103.5,56.1667 103.5,58.8333 103.5,61.5C 98.1667,61.5 92.8333,61.5 87.5,61.5C 87.634,59.7085 87.3007,58.0418 86.5,56.5C 87.404,55.791 87.7373,54.791 87.5,53.5C 92.8333,53.5 98.1667,53.5 103.5,53.5 Z"/></g>
<g><path style="opacity:0.949" fill="#f1623c" d="M 161.5,52.5 C 162.346,55.5482 163.346,58.5482 164.5,61.5C 159.5,61.5 154.5,61.5 149.5,61.5C 148.232,59.0948 147.565,56.4282 147.5,53.5C 152.263,53.7744 156.93,53.441 161.5,52.5 Z"/></g>
<g><path style="opacity:0.937" fill="#f1633c" d="M 355.5,54.5 C 355.5,56.8333 355.5,59.1667 355.5,61.5C 350.833,61.5 346.167,61.5 341.5,61.5C 341.634,59.7085 341.301,58.0418 340.5,56.5C 341.404,55.791 341.737,54.791 341.5,53.5C 346.263,53.2256 350.93,53.559 355.5,54.5 Z"/></g>
<g><path style="opacity:0.895" fill="#f15c3f" d="M 64.5,57.5 C 69.1667,57.5 73.8333,57.5 78.5,57.5C 78.2786,60.2788 78.612,62.9455 79.5,65.5C 74.193,64.9735 69.193,65.6402 64.5,67.5C 64.5,64.1667 64.5,60.8333 64.5,57.5 Z"/></g>
<g><path style="opacity:0.957" fill="#f15c3e" d="M 196.5,56.5 C 201.405,57.4454 206.405,57.7787 211.5,57.5C 211.117,60.8112 210.117,63.8112 208.5,66.5C 203.731,65.8829 199.064,65.2162 194.5,64.5C 195.371,61.8877 196.037,59.221 196.5,56.5 Z"/></g>
<g><path style="opacity:0.945" fill="#f05641" d="M 22.5,62.5 C 22.298,64.9496 22.6314,67.283 23.5,69.5C 18.5,70.8333 13.5,70.8333 8.5,69.5C 8.55195,67.0971 8.21862,64.7638 7.5,62.5C 12.5,61.1667 17.5,61.1667 22.5,62.5 Z"/></g>
<g><path style="opacity:0.955" fill="#f15540" d="M 41.5,60.5 C 41.3691,61.3764 41.7025,62.0431 42.5,62.5C 46.9642,61.2006 51.2975,61.2006 55.5,62.5C 55.2927,65.2406 54.2927,67.5739 52.5,69.5C 44.1667,70.8333 35.8333,70.8333 27.5,69.5C 32.6602,67.3535 37.3269,64.3535 41.5,60.5 Z"/></g>
<g><path style="opacity:0.961" fill="#f05442" d="M 87.5,61.5 C 92.8333,61.5 98.1667,61.5 103.5,61.5C 103.833,66.1667 104.167,70.8333 104.5,75.5C 99.4388,74.6423 94.1054,74.309 88.5,74.5C 87.564,70.2648 87.2307,65.9315 87.5,61.5 Z"/></g>
<g><path style="opacity:0.973" fill="#f05741" d="M 143.5,61.5 C 143.616,64.8599 143.949,68.1933 144.5,71.5C 143.279,70.9717 142.113,70.305 141,69.5C 136.767,69.6397 132.267,69.973 127.5,70.5C 128.076,66.8875 127.076,63.8875 124.5,61.5C 130.585,61.3923 136.918,61.3923 143.5,61.5 Z"/></g>
<g><path style="opacity:0.94" fill="#f05540" d="M 149.5,61.5 C 154.5,61.5 159.5,61.5 164.5,61.5C 165.913,64.6612 167.58,67.6612 169.5,70.5C 163.727,69.7449 158.06,69.4115 152.5,69.5C 150.733,67.2084 149.733,64.5418 149.5,61.5 Z"/></g>
<g><path style="opacity:0.944" fill="#f05741" d="M 227.5,61.5 C 232.807,60.9735 237.807,61.6402 242.5,63.5C 242.5,65.8333 242.5,68.1667 242.5,70.5C 237.665,69.4997 232.998,69.4997 228.5,70.5C 227.523,67.7131 227.19,64.7131 227.5,61.5 Z"/></g>
<g><path style="opacity:0.879" fill="#f15640" d="M 341.5,61.5 C 346.167,61.5 350.833,61.5 355.5,61.5C 355.575,64.2062 355.908,66.8728 356.5,69.5C 351.5,69.5 346.5,69.5 341.5,69.5C 341.5,66.8333 341.5,64.1667 341.5,61.5 Z"/></g>
<g><path style="opacity:0.958" fill="#ef4f44" d="M 79.5,65.5 C 79.3398,67.1992 79.5065,68.8659 80,70.5C 80.414,70.0426 80.914,69.7093 81.5,69.5C 82.3219,71.1386 82.9886,72.8053 83.5,74.5C 76.9571,75.0662 70.4571,75.3996 64,75.5C 63.2828,74.9558 62.7828,74.2891 62.5,73.5C 63.1667,71.5 63.8333,69.5 64.5,67.5C 69.193,65.6402 74.193,64.9735 79.5,65.5 Z"/></g>
<g><path style="opacity:0.978" fill="#ef4d45" d="M 8.5,69.5 C 13.5,70.8333 18.5,70.8333 23.5,69.5C 24.5279,69.9258 25.8612,69.9258 27.5,69.5C 35.8333,70.8333 44.1667,70.8333 52.5,69.5C 50.7807,72.2195 48.4474,74.2195 45.5,75.5C 33.1877,74.2087 20.8544,74.2087 8.5,75.5C 8.5,73.5 8.5,71.5 8.5,69.5 Z"/></g>
<g><path style="opacity:0.958" fill="#f04e44" d="M 194.5,64.5 C 199.064,65.2162 203.731,65.8829 208.5,66.5C 207.502,70.5055 205.502,73.8388 202.5,76.5C 202.217,75.7109 201.717,75.0442 201,74.5C 186.054,74.7279 170.887,75.0612 155.5,75.5C 153.975,73.7837 152.975,71.7837 152.5,69.5C 158.06,69.4115 163.727,69.7449 169.5,70.5C 179.386,74.8569 187.719,72.8569 194.5,64.5 Z"/></g>
<g><path style="opacity:0.945" fill="#ef4d45" d="M 242.5,70.5 C 242.5,71.5 242.5,72.5 242.5,73.5C 253.286,73.0298 263.952,71.6965 274.5,69.5C 276.086,71.1727 276.753,73.1727 276.5,75.5C 259.623,74.735 242.623,74.4017 225.5,74.5C 225.706,72.4508 226.539,72.1175 228,73.5C 228.483,72.552 228.649,71.552 228.5,70.5C 232.998,69.4997 237.665,69.4997 242.5,70.5 Z"/></g>
<g><path style="opacity:0.909" fill="#e84746" d="M 144.5,71.5 C 144.395,75.5483 144.728,79.5483 145.5,83.5C 139.862,84.2197 134.196,84.553 128.5,84.5C 128.717,79.7697 128.383,75.1031 127.5,70.5C 132.267,69.973 136.767,69.6397 141,69.5C 142.113,70.305 143.279,70.9717 144.5,71.5 Z"/></g>
<g><path style="opacity:0.957" fill="#eb4647" d="M 45.5,75.5 C 41.5844,78.2895 37.251,80.2895 32.5,81.5C 24.1667,81.5 15.8333,81.5 7.5,81.5C 5.82125,78.9879 6.15458,76.9879 8.5,75.5C 20.8544,74.2087 33.1877,74.2087 45.5,75.5 Z"/></g>
<g><path style="opacity:0.956" fill="#e64547" d="M 62.5,73.5 C 62.7828,74.2891 63.2828,74.9558 64,75.5C 70.4571,75.3996 76.9571,75.0662 83.5,74.5C 84.0685,77.5884 84.0685,80.5884 83.5,83.5C 75.9699,84.8203 68.4699,84.8203 61,83.5C 60.9043,79.999 61.4043,76.6657 62.5,73.5 Z"/></g>
<g><path style="opacity:0.929" fill="#e64547" d="M 88.5,74.5 C 94.1054,74.309 99.4388,74.6423 104.5,75.5C 104.292,77.9201 104.626,80.2534 105.5,82.5C 99.9766,84.211 94.31,84.8776 88.5,84.5C 88.5,81.1667 88.5,77.8333 88.5,74.5 Z"/></g>
<g><path style="opacity:0.99" fill="#ef4847" d="M 202.5,76.5 C 202.167,77.5 201.5,78.1667 200.5,78.5C 186.5,78.5 172.5,78.5 158.5,78.5C 157.167,77.8333 156.167,76.8333 155.5,75.5C 170.887,75.0612 186.054,74.7279 201,74.5C 201.717,75.0442 202.217,75.7109 202.5,76.5 Z"/></g>
<g><path style="opacity:0.982" fill="#ef4747" d="M 225.5,74.5 C 242.623,74.4017 259.623,74.735 276.5,75.5C 277.11,76.391 277.443,77.391 277.5,78.5C 260.167,78.5 242.833,78.5 225.5,78.5C 225.5,77.1667 225.5,75.8333 225.5,74.5 Z"/></g>
<g><path style="opacity:0.951" fill="#dc4246" d="M 158.5,78.5 C 172.5,78.5 186.5,78.5 200.5,78.5C 198.929,81.2313 196.595,83.0646 193.5,84C 183.819,87.2934 174.153,87.2934 164.5,84C 162.004,82.669 160.004,80.8356 158.5,78.5 Z"/></g>
<g><path style="opacity:0.981" fill="#e54447" d="M 225.5,78.5 C 242.833,78.5 260.167,78.5 277.5,78.5C 277.5,79.1667 277.5,79.8333 277.5,80.5C 260.167,80.5 242.833,80.5 225.5,80.5C 225.5,79.8333 225.5,79.1667 225.5,78.5 Z"/></g>
<g><path style="opacity:0.941" fill="#d03f46" d="M 7.5,81.5 C 15.8333,81.5 24.1667,81.5 32.5,81.5C 25.0538,85.4232 17.0538,87.7565 8.5,88.5C 8.32588,86.139 7.99255,83.8056 7.5,81.5 Z"/></g>
<g><path style="opacity:0.977" fill="#da4147" d="M 225.5,80.5 C 242.833,80.5 260.167,80.5 277.5,80.5C 277.804,81.1499 278.137,81.8165 278.5,82.5C 276.955,83.4519 275.288,83.7852 273.5,83.5C 256.967,82.7441 240.634,82.7441 224.5,83.5C 224.557,82.391 224.89,81.391 225.5,80.5 Z"/></g>
<g><path style="opacity:0.997" fill="#cc3f46" d="M 273.5,83.5 C 268.728,84.8711 263.728,85.7044 258.5,86C 247.172,86.4999 235.838,86.6665 224.5,86.5C 224.5,85.5 224.5,84.5 224.5,83.5C 240.634,82.7441 256.967,82.7441 273.5,83.5 Z"/></g>
</svg>
