<?xml version="1.0" encoding="UTF-8"?>
<!DOCTYPE svg PUBLIC "-//W3C//DTD SVG 1.1//EN" "http://www.w3.org/Graphics/SVG/1.1/DTD/svg11.dtd">
<svg xmlns="http://www.w3.org/2000/svg" version="1.1" width="256px" height="256px" style="shape-rendering:geometricPrecision; text-rendering:geometricPrecision; image-rendering:optimizeQuality; fill-rule:evenodd; clip-rule:evenodd" xmlns:xlink="http://www.w3.org/1999/xlink">
<g><path style="opacity:0.974" fill="#fefffe" d="M 255.5,37.5 C 255.5,40.5 255.5,43.5 255.5,46.5C 221.693,104.104 187.86,161.77 154,219.5C 147.895,229.935 141.395,240.101 134.5,250C 130.625,251.52 126.625,251.854 122.5,251C 80.842,228.806 39.842,205.64 -0.5,181.5C -0.5,179.833 -0.5,178.167 -0.5,176.5C 9.72522,159.729 20.2252,143.062 31,126.5C 32.2419,125.128 33.7419,124.128 35.5,123.5C 56.1507,133.824 76.484,144.657 96.5,156C 97.8333,156.667 99.1667,156.667 100.5,156C 128.874,107.418 157.374,58.9178 186,10.5C 192.197,2.48707 199.697,1.3204 208.5,7C 221.5,14.6667 234.5,22.3333 247.5,30C 250.897,31.8401 253.564,34.3401 255.5,37.5 Z"/></g>
</svg>
