<?xml version="1.0" encoding="UTF-8"?>
<!DOCTYPE svg PUBLIC "-//W3C//DTD SVG 1.1//EN" "http://www.w3.org/Graphics/SVG/1.1/DTD/svg11.dtd">
<svg xmlns="http://www.w3.org/2000/svg" version="1.1" width="256px" height="256px" style="shape-rendering:geometricPrecision; text-rendering:geometricPrecision; image-rendering:optimizeQuality; fill-rule:evenodd; clip-rule:evenodd" xmlns:xlink="http://www.w3.org/1999/xlink">
<g><path style="opacity:0.981" fill="#fea500" d="M 255.5,42.5 C 255.5,99.5 255.5,156.5 255.5,213.5C 251.506,235.829 238.506,249.829 216.5,255.5C 157.167,255.5 97.8333,255.5 38.5,255.5C 15.1341,249.468 2.13408,234.468 -0.5,210.5C -0.5,155.5 -0.5,100.5 -0.5,45.5C 1.79873,22.0203 14.4654,7.18695 37.5,1C 97.5,0.333333 157.5,0.333333 217.5,1C 239.112,6.77381 251.779,20.6071 255.5,42.5 Z M 86.5,70.5 C 88.6547,70.372 90.6547,70.872 92.5,72C 104.029,83.8631 115.862,95.3631 128,106.5C 139.862,94.3036 152.029,82.4703 164.5,71C 165.833,70.3333 167.167,70.3333 168.5,71C 175.399,76.0647 181.066,82.2314 185.5,89.5C 185,90.5 184.5,91.5 184,92.5C 172.137,104.029 160.637,115.862 149.5,128C 161.683,140.683 173.683,153.516 185.5,166.5C 181.066,173.769 175.399,179.935 168.5,185C 166.365,185.635 164.365,185.301 162.5,184C 151,172.5 139.5,161 128,149.5C 115.5,161.333 103,173.167 90.5,185C 89.1667,185.667 87.8333,185.667 86.5,185C 80.0368,179.58 74.3701,173.414 69.5,166.5C 70,165.5 70.5,164.5 71,163.5C 82.8756,151.959 94.3756,140.125 105.5,128C 93.3294,115.329 81.3294,102.496 69.5,89.5C 71.8076,86.0252 74.3076,82.6919 77,79.5C 80.6671,76.9988 83.8338,73.9988 86.5,70.5 Z"/></g>
</svg>
