<?xml version="1.0" encoding="UTF-8"?>
<!DOCTYPE svg PUBLIC "-//W3C//DTD SVG 1.1//EN" "http://www.w3.org/Graphics/SVG/1.1/DTD/svg11.dtd">
<svg xmlns="http://www.w3.org/2000/svg" version="1.1" width="594px" height="600px" style="shape-rendering:geometricPrecision; text-rendering:geometricPrecision; image-rendering:optimizeQuality; fill-rule:evenodd; clip-rule:evenodd" xmlns:xlink="http://www.w3.org/1999/xlink">
<g><path style="opacity:0.992" fill="#fefffe" d="M 282.5,-0.5 C 291.5,-0.5 300.5,-0.5 309.5,-0.5C 338.784,4.98094 356.951,22.3143 364,51.5C 364.912,55.7946 365.579,60.1279 366,64.5C 366.5,119.499 366.667,174.499 366.5,229.5C 420.834,229.333 475.168,229.5 529.5,230C 564.43,233.112 585.764,251.612 593.5,285.5C 593.5,294.833 593.5,304.167 593.5,313.5C 587.026,345.802 567.359,364.302 534.5,369C 478.501,369.5 422.501,369.667 366.5,369.5C 366.667,424.501 366.5,479.501 366,534.5C 362.89,570.162 344.057,591.829 309.5,599.5C 300.5,599.5 291.5,599.5 282.5,599.5C 248.628,591.778 230.128,570.445 227,535.5C 226.5,480.168 226.333,424.834 226.5,369.5C 170.832,369.667 115.166,369.5 59.5,369C 26.5451,363.209 6.54508,344.043 -0.5,311.5C -0.5,302.833 -0.5,294.167 -0.5,285.5C 7.00067,251.516 28.334,233.016 63.5,230C 117.832,229.5 172.166,229.333 226.5,229.5C 226.333,174.499 226.5,119.499 227,64.5C 229.695,28.9999 248.195,7.33325 282.5,-0.5 Z"/></g>
</svg>
