<?xml version="1.0" encoding="UTF-8"?>
<!DOCTYPE svg PUBLIC "-//W3C//DTD SVG 1.1//EN" "http://www.w3.org/Graphics/SVG/1.1/DTD/svg11.dtd">
<svg xmlns="http://www.w3.org/2000/svg" version="1.1" width="256px" height="256px" style="shape-rendering:geometricPrecision; text-rendering:geometricPrecision; image-rendering:optimizeQuality; fill-rule:evenodd; clip-rule:evenodd" xmlns:xlink="http://www.w3.org/1999/xlink">
<g><path style="opacity:0.921" fill="#fefffe" d="M 255.5,125.5 C 255.5,127.167 255.5,128.833 255.5,130.5C 215.176,185.469 161.176,206.969 93.5,195C 53.5646,185.224 22.2313,163.39 -0.5,129.5C -0.5,128.5 -0.5,127.5 -0.5,126.5C 34.3853,76.0011 82.7187,53.1677 144.5,58C 191.81,63.859 228.81,86.359 255.5,125.5 Z M 90.5,75.5 C 91.552,75.3505 92.552,75.5172 93.5,76C 71.2559,92.7117 62.7559,114.878 68,142.5C 71.945,157.904 80.445,170.07 93.5,179C 62.0986,172.174 36.4319,155.007 16.5,127.5C 35.6121,102.276 60.2787,84.9427 90.5,75.5 Z M 164.5,76.5 C 195.373,84.8915 220.039,102.058 238.5,128C 219.341,153.657 194.341,170.823 163.5,179.5C 190.719,157.283 197.219,129.949 183,97.5C 178.055,89.3907 171.889,82.3907 164.5,76.5 Z M 122.5,90.5 C 147.859,90.3595 162.193,102.86 165.5,128C 163.065,150.268 150.732,162.768 128.5,165.5C 102.512,161.681 90.3455,146.681 92,120.5C 96.6007,104.793 106.767,94.7931 122.5,90.5 Z"/></g>
<g><path style="opacity:0.891" fill="#fefffe" d="M 114.5,103.5 C 127.227,106.954 130.727,114.62 125,126.5C 117.399,132.32 110.399,131.653 104,124.5C 100.123,113.586 103.623,106.586 114.5,103.5 Z"/></g>
</svg>
