<?xml version="1.0" encoding="UTF-8"?>
<!DOCTYPE svg PUBLIC "-//W3C//DTD SVG 1.1//EN" "http://www.w3.org/Graphics/SVG/1.1/DTD/svg11.dtd">
<svg xmlns="http://www.w3.org/2000/svg" version="1.1" width="512px" height="512px" style="shape-rendering:geometricPrecision; text-rendering:geometricPrecision; image-rendering:optimizeQuality; fill-rule:evenodd; clip-rule:evenodd" xmlns:xlink="http://www.w3.org/1999/xlink">
<g><path style="opacity:0.98" fill="#000000" d="M 298.5,29.5 C 334.674,29.5053 351.841,47.5053 350,83.5C 345.951,103.216 334.118,115.383 314.5,120C 286.48,123.754 268.313,112.254 260,85.5C 256.311,55.1524 269.144,36.4857 298.5,29.5 Z"/></g>
<g><path style="opacity:0.982" fill="#000000" d="M 263.5,149.5 C 285.641,147.317 301.808,155.984 312,175.5C 315.737,185.966 316.404,196.633 314,207.5C 292.822,277.879 271.488,348.213 250,418.5C 247.309,424.339 248.142,429.506 252.5,434C 253.729,434.781 255.062,435.281 256.5,435.5C 261.386,434.39 265.719,432.224 269.5,429C 285.727,411.276 301.394,393.109 316.5,374.5C 317.825,384.194 317.658,393.861 316,403.5C 301.732,426.106 284.232,445.94 263.5,463C 245.588,475.813 225.588,481.813 203.5,481C 186.509,478.6 173.676,470.1 165,455.5C 161.796,447.441 160.796,439.107 162,430.5C 184.499,355.002 206.999,279.502 229.5,204C 228.552,199.602 226.052,196.435 222,194.5C 213.703,197.154 206.703,201.82 201,208.5C 188.143,224.869 174.81,240.869 161,256.5C 160.333,247.167 160.333,237.833 161,228.5C 183.129,195.369 212.296,170.535 248.5,154C 253.577,152.32 258.577,150.82 263.5,149.5 Z"/></g>
</svg>
