<?xml version="1.0" encoding="UTF-8"?>
<!DOCTYPE svg PUBLIC "-//W3C//DTD SVG 1.1//EN" "http://www.w3.org/Graphics/SVG/1.1/DTD/svg11.dtd">
<svg xmlns="http://www.w3.org/2000/svg" version="1.1" width="256px" height="256px" style="shape-rendering:geometricPrecision; text-rendering:geometricPrecision; image-rendering:optimizeQuality; fill-rule:evenodd; clip-rule:evenodd" xmlns:xlink="http://www.w3.org/1999/xlink">
<g><path style="opacity:0.973" fill="#fea500" d="M 117.5,-0.5 C 124.5,-0.5 131.5,-0.5 138.5,-0.5C 193.109,6.59664 230.275,35.93 250,87.5C 252.174,95.5577 254.008,103.558 255.5,111.5C 255.5,122.167 255.5,132.833 255.5,143.5C 247.308,193.679 219.641,228.512 172.5,248C 161.642,251.735 150.642,254.235 139.5,255.5C 131.833,255.5 124.167,255.5 116.5,255.5C 63.6111,248.461 27.1111,220.128 7,170.5C -9.46962,114.6 3.69704,67.0996 46.5,28C 67.4289,11.5271 91.0956,2.02712 117.5,-0.5 Z M 109.5,53.5 C 123.167,53.5 136.833,53.5 150.5,53.5C 150.5,71.8333 150.5,90.1667 150.5,108.5C 168.833,108.5 187.167,108.5 205.5,108.5C 205.5,122.167 205.5,135.833 205.5,149.5C 187.167,149.5 168.833,149.5 150.5,149.5C 150.5,168.167 150.5,186.833 150.5,205.5C 136.833,205.5 123.167,205.5 109.5,205.5C 109.667,187.164 109.5,168.83 109,150.5C 90.9099,149.508 72.7433,149.174 54.5,149.5C 54.5,135.833 54.5,122.167 54.5,108.5C 72.8333,108.5 91.1667,108.5 109.5,108.5C 109.5,90.1667 109.5,71.8333 109.5,53.5 Z"/></g>
</svg>
