<?xml version="1.0" encoding="UTF-8"?>
<!DOCTYPE svg PUBLIC "-//W3C//DTD SVG 1.1//EN" "http://www.w3.org/Graphics/SVG/1.1/DTD/svg11.dtd">
<svg xmlns="http://www.w3.org/2000/svg" version="1.1" width="3607px" height="3607px" style="shape-rendering:geometricPrecision; text-rendering:geometricPrecision; image-rendering:optimizeQuality; fill-rule:evenodd; clip-rule:evenodd" xmlns:xlink="http://www.w3.org/1999/xlink">
<g><path style="opacity:0.999" fill="#f0ba7d" d="M 1748.5,-0.5 C 1784.83,-0.5 1821.17,-0.5 1857.5,-0.5C 2252.53,14.5354 2605.53,142.369 2916.5,383C 3204.81,612.27 3406.65,902.436 3522,1253.5C 3572.66,1414.11 3600.82,1578.44 3606.5,1746.5C 3606.5,1784.17 3606.5,1821.83 3606.5,1859.5C 3590.79,2252.89 3463.29,2604.56 3224,2914.5C 3008.31,3187.11 2736.81,3382.94 2409.5,3502C 2219.78,3568.98 2024.45,3603.81 1823.5,3606.5C 1810.17,3606.5 1796.83,3606.5 1783.5,3606.5C 1387.02,3598.96 1030.69,3477.13 714.5,3241C 434.794,3026.22 232.961,2753.39 109,2422.5C 38.0753,2226.61 1.5753,2024.61 -0.5,1816.5C -0.5,1807.17 -0.5,1797.83 -0.5,1788.5C 6.35874,1379.04 134.192,1013.04 383,690.5C 601.797,414.784 877.297,217.618 1209.5,99C 1384.28,38.6505 1563.94,5.48383 1748.5,-0.5 Z"/></g>
<g><path style="opacity:1" fill="#fefefe" d="M 1500.5,892.5 C 1702.5,892.5 1904.5,892.5 2106.5,892.5C 2106.5,1094.83 2106.5,1297.17 2106.5,1499.5C 2308.83,1499.5 2511.17,1499.5 2713.5,1499.5C 2713.5,1701.83 2713.5,1904.17 2713.5,2106.5C 2511.5,2106.5 2309.5,2106.5 2107.5,2106.5C 2107.5,2308.5 2107.5,2510.5 2107.5,2712.5C 1904.83,2712.5 1702.17,2712.5 1499.5,2712.5C 1499.5,2510.5 1499.5,2308.5 1499.5,2106.5C 1297.5,2106.5 1095.5,2106.5 893.5,2106.5C 893.5,1904.17 893.5,1701.83 893.5,1499.5C 1095.83,1499.5 1298.17,1499.5 1500.5,1499.5C 1500.5,1297.17 1500.5,1094.83 1500.5,892.5 Z"/></g>
<g><path style="opacity:1" fill="#f5d0a8" d="M 1500.5,892.5 C 1500.5,1094.83 1500.5,1297.17 1500.5,1499.5C 1298.17,1499.5 1095.83,1499.5 893.5,1499.5C 1095.33,1498.5 1297.33,1498.17 1499.5,1498.5C 1499.17,1296.33 1499.5,1094.33 1500.5,892.5 Z"/></g>
<g><path style="opacity:1" fill="#f5d0a8" d="M 2106.5,892.5 C 2107.5,1094.33 2107.83,1296.33 2107.5,1498.5C 2309.67,1498.17 2511.67,1498.5 2713.5,1499.5C 2511.17,1499.5 2308.83,1499.5 2106.5,1499.5C 2106.5,1297.17 2106.5,1094.83 2106.5,892.5 Z"/></g>
</svg>
